<?xml version="1.0" encoding="UTF-8"?>
<svg id="droneseta_logo" data-name="droneseta logo" xmlns="http://www.w3.org/2000/svg" viewBox="0 0 287.28 254.88">
  <path d="M207.7,85.26v21.04c0,3.2-2.59,5.79-5.79,5.79H85.37c-3.2,0-5.79-2.59-5.79-5.79v-21.04c0-1.96-.99-3.78-2.63-4.85l-31.94-20.79c-3.85-2.51-8.95,.26-8.95,4.85v14.61c0,1.9,.94,3.69,2.51,4.77l18.81,12.96c1.57,1.08,2.51,2.86,2.51,4.77v7.94c0,1.65,.7,3.22,1.93,4.32l78.68,70.34c2.21,1.98,5.56,1.96,7.76-.03l77.27-70.31c1.21-1.1,1.89-2.65,1.89-4.28v-11.01l21.31-14.68c1.57-1.08,2.51-2.86,2.51-4.77v-14.61c0-4.6-5.1-7.36-8.95-4.85l-31.94,20.79c-1.64,1.07-2.63,2.89-2.63,4.85Zm-62,74.88c-6.05,.91-11.13-4.57-9.5-10.71,.75-2.84,3.05-5.13,5.89-5.88,6.14-1.62,11.62,3.51,10.67,9.57-.56,3.57-3.48,6.48-7.06,7.02Z"/>
</svg>